<svg width="80" height="80" viewBox="0 0 80 80" xmlns="http://www.w3.org/2000/svg" role="img" aria-label="Microsoft OneDrive">
  <defs>
    <linearGradient id="od-main" x1="0" y1="0" x2="1" y2="1">
      <stop offset="0" stop-color="#0C6ED8"/>
      <stop offset="1" stop-color="#2CA5F3"/>
    </linearGradient>
    <linearGradient id="od-low" x1="0" y1="0" x2="1" y2="0">
      <stop offset="0" stop-color="#0078D4"/>
      <stop offset="1" stop-color="#35B6FF"/>
    </linearGradient>
  </defs>
  <path d="M20 52c0-8 6-14 14-14 2 0 4 .4 5.8 1.2 3-6.5 9.3-10.9 16.7-10.9 10.3 0 18.7 8 19.5 18.2A11.8 11.8 0 0 1 68 64H26c-6.6 0-12-5.4-12-12 0-4.5 2.5-8.4 6-10.3 0 0 0 0 0 0z" fill="url(#od-main)"/>
  <path d="M17 55c2 5.2 7 9 12.8 9H68c4.6 0 8.6-2.5 10.7-6.2-2 1.7-4.7 2.7-7.7 2.7H27.4c-4.3 0-8.2-2-10.4-5.5z" fill="url(#od-low)"/>
</svg>
